HIERARCHY
ROOT root
{
	OFFSET	0	13.1	24.9
	CHANNELS 6  Xposition Yposition Zposition Xrotation Yrotation Zrotation
	JOINT spine_1
	{
		OFFSET	0	9.99999	0
		CHANNELS 3  Xrotation Yrotation Zrotation
		JOINT spine_2
		{
			OFFSET	0	112	-10
			CHANNELS 3  Xrotation Yrotation Zrotation
			JOINT spine_3
			{
				OFFSET	0	206.5	19.3
				CHANNELS 3  Xrotation Yrotation Zrotation
				JOINT spine_4
				{
					OFFSET	0	110.4	14.6
					CHANNELS 3  Xrotation Yrotation Zrotation
					JOINT neck_1
					{
						OFFSET	0	71.8	-50.3
						CHANNELS 3  Xrotation Yrotation Zrotation
						JOINT neck_2
						{
							OFFSET	0	86.2	-25.8
							CHANNELS 3  Xrotation Yrotation Zrotation
							JOINT head_ee
							{
								OFFSET	0	179.8	-8.7
								CHANNELS 3  Xrotation Yrotation Zrotation
								End Site
								{
									OFFSET	1	0	0
								}
							}
						}
					}
					JOINT left_clavicle
					{
						OFFSET	-43.2	22.4	-70.8
						CHANNELS 3  Xrotation Yrotation Zrotation
						JOINT left_shoulder
						{
							OFFSET	-93.9	-5.79999	48.7
							CHANNELS 3  Xrotation Yrotation Zrotation
							JOINT left_elbow
							{
								OFFSET	-291.4	-30.8	15.2
								CHANNELS 3  Xrotation Yrotation Zrotation
								JOINT left_lowarm_twist
								{
									OFFSET	-110.7	-3.89999	13.6
									CHANNELS 3  Xrotation Yrotation Zrotation
									JOINT left_hand
									{
										OFFSET	-110.7	-3.89999	13.6
										CHANNELS 3  Xrotation Yrotation Zrotation
										JOINT left_ee
										{
											OFFSET	-80.8	-5.10001	12.1
											CHANNELS 3  Xrotation Yrotation Zrotation
											End Site
											{
												OFFSET	1	0	0
											}
										}
									}
								}
							}
						}
					}
					JOINT right_clavicle
					{
						OFFSET	43.2	22.4	-70.8
						CHANNELS 3  Xrotation Yrotation Zrotation
						JOINT right_shoulder
						{
							OFFSET	93.9	-5.79999	48.7
							CHANNELS 3  Xrotation Yrotation Zrotation
							JOINT right_elbow
							{
								OFFSET	291.4	-30.8	15.2
								CHANNELS 3  Xrotation Yrotation Zrotation
								JOINT right_lowarm_twist
								{
									OFFSET	110.7	-3.89999	13.6
									CHANNELS 3  Xrotation Yrotation Zrotation
									JOINT right_hand
									{
										OFFSET	110.7	-3.89999	13.6
										CHANNELS 3  Xrotation Yrotation Zrotation
										JOINT right_ee
										{
											OFFSET	80.8	-5.10001	12.1
											CHANNELS 3  Xrotation Yrotation Zrotation
											End Site
											{
												OFFSET	1	0	0
											}
										}
									}
								}
							}
						}
					}
				}
			}
		}
	}
	JOINT left_hip
	{
		OFFSET	-82.8	-127.5	0.300001
		CHANNELS 3  Xrotation Yrotation Zrotation
		JOINT left_knee
		{
			OFFSET	-28.2	-396.7	2.2
			CHANNELS 3  Xrotation Yrotation Zrotation
			JOINT left_ankle
			{
				OFFSET	-11.7	-411.3	35.4
				CHANNELS 3  Xrotation Yrotation Zrotation
				JOINT left_toes
				{
					OFFSET	0	-60	-88.6
					CHANNELS 3  Xrotation Yrotation Zrotation
					JOINT left_foot_ee
					{
						OFFSET	-22.5	-16.5	-42.2
						CHANNELS 3  Xrotation Yrotation Zrotation
						End Site
						{
							OFFSET	1	0	0
						}
					}
				}
			}
		}
	}
	JOINT right_hip
	{
		OFFSET	82.8	-127.5	0.300001
		CHANNELS 3  Xrotation Yrotation Zrotation
		JOINT right_knee
		{
			OFFSET	28.2	-396.7	2.2
			CHANNELS 3  Xrotation Yrotation Zrotation
			JOINT right_ankle
			{
				OFFSET	11.7	-411.3	35.4
				CHANNELS 3  Xrotation Yrotation Zrotation
				JOINT right_toes
				{
					OFFSET	0	-60	-88.6
					CHANNELS 3  Xrotation Yrotation Zrotation
					JOINT right_foot_ee
					{
						OFFSET	22.5	-16.5	-42.2
						CHANNELS 3  Xrotation Yrotation Zrotation
						End Site
						{
							OFFSET	1	0	0
						}
					}
				}
			}
		}
	}
}
MOTION
Frames: 12
Frame Time: 0.02
3177.02 653.055 -1669.29 3.70819429683 67.7803464876 -5.06498047576 -1.86544 0.992011 4.14229 -1.85619 0.726655 4.19689 -1.79219 -0.304552 4.24834 -1.81718 0.369596 4.24318 -19.8517 16.2788 -15.1664 -21.7739 38.9742 -6.54666 -0.0 0.0 -0.0 -4.40395 17.4068 -4.7746 -18.987 -16.6547 72.1562 0.470669 -13.1246 0.0541445 -48.7367 -3.92448 4.61521 3.74503 23.2137 32.9222 -0.0 0.0 -0.0 11.15 21.305 -21.8961 12.4252 36.6116 -67.0358 1.33538 33.4833 -0.401707 -67.3383 6.2069 -5.27044 -5.70635 -14.4788 31.3053 0.0 0.0 0.0 24.0328 -7.8167 -8.39391 -4.96954 0.172474 0.742937 17.5419 16.8544 -2.45521 -29.2889 0.0 0.0 -0.0 0.0 -0.0 -13.7591 -2.04395 0.969253 -18.3629 -0.311529 -2.78869 39.2342 -17.8403 4.9116 39.754 -0.0 -0.0 0.0 0.0 0.0 
3146.9622978 653.341 -1661.30883228 -1.08995074915 66.6405185366 0.564887378649 -1.63648 1.12303 4.07064 -1.62768 0.861956 4.13371 -1.55534 -0.140157 4.22014 -1.57979 0.527497 4.18944 -14.8974 15.4613 -15.3318 -15.6564 38.5628 -9.09222 -0.0 0.0 -0.0 -4.51521 16.8264 -5.08645 -16.7285 -16.5613 72.8004 0.448466 -12.5254 0.0492161 -45.8558 -3.59434 4.4488 4.1871 20.7543 35.7199 -0.0 0.0 -0.0 11.2353 21.8452 -22.0456 9.46194 38.5242 -64.618 1.32913 33.3597 -0.398265 -65.1797 5.93305 -5.23302 -5.53912 -15.8738 29.0173 0.0 0.0 0.0 26.2276 -8.13197 -9.55847 -9.90386 0.279371 1.49237 14.7932 11.7937 -2.07116 -33.0282 0.0 0.0 -0.0 0.0 -0.0 -13.859 0.570545 1.9086 -16.9194 -0.319594 -2.56736 38.1243 -15.5879 4.76929 40.1201 -0.0 -0.0 0.0 0.0 0.0 
3146.96302579 653.341 -1661.3060911 -1.090180939 66.6457428805 0.56513811555 -1.63648 1.12303 4.07064 -1.62768 0.861956 4.13371 -1.55534 -0.140157 4.22014 -1.57979 0.527497 4.18944 -14.8974 15.4613 -15.3318 -15.6564 38.5628 -9.09222 -0.0 0.0 -0.0 -4.51521 16.8264 -5.08645 -16.7285 -16.5613 72.8004 0.448466 -12.5254 0.0492161 -45.8558 -3.59434 4.4488 4.1871 20.7543 35.7199 -0.0 0.0 -0.0 11.2353 21.8452 -22.0456 9.46194 38.5242 -64.618 1.32913 33.3597 -0.398265 -65.1797 5.93305 -5.23302 -5.53912 -15.8738 29.0173 0.0 0.0 0.0 26.2276 -8.13197 -9.55847 -9.90386 0.279371 1.49237 14.7932 11.7937 -2.07116 -33.0282 0.0 0.0 -0.0 0.0 -0.0 -13.859 0.570545 1.9086 -16.9194 -0.319594 -2.56736 38.1243 -15.5879 4.76929 40.1201 -0.0 -0.0 0.0 0.0 0.0 
3128.66161037 658.071 -1657.81344336 -1.99619004605 65.9706063471 1.91494463717 -1.50214 1.08444 4.04291 -1.49343 0.825201 4.10358 -1.42473 -0.159284 4.18257 -1.44879 0.502691 4.15535 -14.0248 15.4435 -14.5916 -14.6461 38.238 -8.73469 -0.0 0.0 -0.0 -4.40497 16.3917 -5.01331 -15.6493 -16.2693 72.8201 0.430717 -12.0445 0.0454394 -44.757 -3.47068 4.381 4.42238 19.4951 37.2893 -0.0 0.0 -0.0 11.2882 22.8861 -22.0754 7.72932 38.4932 -64.1643 1.24201 31.6008 -0.351474 -66.637 6.11778 -5.25942 -5.69496 -16.7783 29.4454 0.0 0.0 0.0 26.1517 -8.80194 -10.3151 -11.3368 0.298282 1.71142 11.0851 12.6012 -1.57513 -35.0526 0.0 0.0 -0.0 0.0 -0.0 -13.9407 1.44242 2.00434 -16.2721 -0.321398 -2.46806 39.0029 -14.374 4.83327 40.158 -0.0 -0.0 0.0 0.0 0.0 
3051.65356959 684.881 -1653.57672133 -2.51850639983 65.5977591167 2.73644607459 -1.36964 0.712108 4.16186 -1.36012 0.446074 4.19864 -1.31864 -0.543407 4.18718 -1.34307 0.12409 4.22041 -7.97465 13.0934 -15.5345 -7.1904 35.296 -12.8735 -0.0 0.0 -0.0 -3.82193 16.5763 -4.0459 -14.8631 -15.9382 71.3323 0.538448 -14.935 0.070578 -42.8967 -3.26436 4.26086 4.60256 17.9713 38.4072 -0.0 0.0 -0.0 12.3604 22.4026 -24.5712 -0.181726 37.9447 -63.8498 1.04339 27.3321 -0.253702 -64.6544 5.86661 -5.22234 -5.75009 -19.9623 27.3341 0.0 0.0 0.0 23.3289 -8.60001 -7.87983 -18.158 0.313014 2.75728 16.2841 15.2393 -2.28095 -36.3164 0.0 0.0 -0.0 0.0 -0.0 -13.1239 5.7361 3.57845 -21.1219 -0.280617 -3.21085 38.1778 -19.7315 4.85068 39.0871 -0.0 -0.0 0.0 0.0 0.0 
3029.85935245 687.411 -1651.72603939 -1.62539965604 65.2480861327 1.83331419673 -1.40895 0.575264 4.14738 -1.39944 0.310425 4.17552 -1.36834 -0.673872 4.13253 -1.39216 -0.0133544 4.187 -8.72193 13.6584 -14.8784 -8.15086 35.8018 -11.7581 -0.0 0.0 -0.0 -4.49775 15.4541 -5.38135 -11.4321 -16.1478 72.7283 0.611028 -16.8404 0.0904497 -41.8257 -3.14739 4.18868 4.68327 16.6813 38.7747 -0.0 0.0 -0.0 12.3107 22.5875 -24.4403 -2.27685 37.5901 -64.0193 0.967252 25.6009 -0.219767 -63.9385 5.77623 -5.20681 -5.57452 -20.0722 26.0532 0.0 0.0 0.0 21.8384 -8.13084 -6.89864 -18.1777 0.312876 2.7603 15.8829 15.8603 -2.23171 -35.6925 0.0 0.0 -0.0 0.0 -0.0 -14.3462 8.15145 4.02456 -22.4127 -0.259182 -3.40775 37.8032 -21.0246 4.8438 39.0987 -0.0 -0.0 0.0 0.0 0.0 
2999.746851 686.065 -1656.29987134 1.19077165871 68.7232129415 -1.67240431752 -1.42973 0.432202 4.53767 -1.41829 0.142888 4.55593 -1.39734 -0.928689 4.46275 -1.42505 -0.212991 4.5532 -6.25128 13.0415 -14.7114 -5.25802 34.7886 -12.6947 -0.0 0.0 -0.0 -4.70793 15.2132 -5.78019 -9.52654 -17.1503 71.1306 0.634203 -17.441 0.09728 -41.9334 -3.15909 4.19603 4.54483 15.9012 37.4642 -0.0 0.0 -0.0 12.1248 19.1169 -24.2805 -5.938 36.2925 -64.1996 0.98989 26.1211 -0.229642 -63.4039 5.70886 -5.19448 -5.91639 -21.107 27.5499 0.0 0.0 0.0 21.7079 -7.39328 -4.66591 -20.8425 0.284672 3.16817 20.3001 14.7917 -2.79291 -36.5765 0.0 0.0 -0.0 0.0 -0.0 -14.9208 10.3049 2.57641 -27.3749 -0.135627 -4.15901 37.1234 -25.1119 4.88638 39.3136 -0.0 -0.0 0.0 0.0 0.0 
2999.65019779 686.065 -1657.69404969 1.16724277822 68.2728263567 -1.64711565158 -1.42973 0.432202 4.53767 -1.41829 0.142888 4.55593 -1.39734 -0.928689 4.46275 -1.42505 -0.212991 4.5532 -6.25128 13.0415 -14.7114 -5.25802 34.7886 -12.6947 -0.0 0.0 -0.0 -4.70793 15.2132 -5.78019 -9.52654 -17.1503 71.1306 0.634203 -17.441 0.09728 -41.9334 -3.15909 4.19603 4.54483 15.9012 37.4642 -0.0 0.0 -0.0 12.1248 19.1169 -24.2805 -5.938 36.2925 -64.1996 0.98989 26.1211 -0.229642 -63.4039 5.70886 -5.19448 -5.91639 -21.107 27.5499 0.0 0.0 0.0 21.7079 -7.39328 -4.66591 -20.8425 0.284672 3.16817 20.3001 14.7917 -2.79291 -36.5765 0.0 0.0 -0.0 0.0 -0.0 -14.9208 10.3049 2.57641 -27.3749 -0.135627 -4.15901 37.1234 -25.1119 4.88638 39.3136 -0.0 -0.0 0.0 0.0 0.0 
2980.5984972 683.682 -1657.59499089 3.38837450958 63.9413217546 -5.12928665003 -1.53202 0.759992 4.76431 -1.51951 0.455645 4.80289 -1.46943 -0.687719 4.77525 -1.50123 0.0741633 4.82384 -4.32868 13.2547 -13.527 -3.1431 34.4314 -12.1341 -0.0 0.0 -0.0 -4.74021 16.5376 -5.51316 -8.30005 -17.8101 70.569 0.657627 -18.0441 0.104418 -41.5546 -3.11799 4.17006 4.56389 15.705 37.5697 -0.0 0.0 -0.0 11.6231 17.6906 -23.2168 -7.85928 37.2898 -65.1408 1.10215 28.6326 -0.281278 -64.0907 5.79543 -5.21021 -6.12306 -21.4973 28.6398 0.0 0.0 0.0 19.9618 -6.22633 -2.28102 -23.8146 0.230881 3.62101 24.5137 21.1654 -3.3808 -36.5107 0.0 0.0 -0.0 0.0 -0.0 -16.1439 13.968 5.50526 -30.8163 -0.0119343 -4.6726 37.1264 -26.4933 4.93052 40.0141 -0.0 -0.0 0.0 0.0 0.0 
2957.53799546 689.364 -1659.90369698 3.95437372777 64.9655446781 -6.3912577559 -1.65868 0.625314 5.25529 -1.64337 0.290117 5.28432 -1.60241 -0.975122 5.2019 -1.64012 -0.142543 5.29034 -3.70863 13.2745 -14.6217 -2.25325 35.3165 -13.5891 -0.0 0.0 -0.0 -4.99969 17.1198 -5.78176 -7.01167 -18.5148 69.5436 0.707239 -19.3077 0.120306 -41.5307 -3.1154 4.16841 4.64401 14.4382 37.8979 -0.0 0.0 -0.0 11.7308 17.3065 -23.483 -9.6963 37.9673 -66.0227 0.988781 26.0957 -0.229153 -64.9978 5.91003 -5.22939 -6.01537 -21.5893 27.827 0.0 0.0 0.0 18.6 -3.15177 -0.799023 -23.8538 0.230014 3.62697 25.9589 20.3264 -3.54231 -31.7923 0.0 0.0 -0.0 0.0 -0.0 -17.0404 15.4883 5.73015 -35.5096 0.206077 -5.35949 35.1049 -26.1923 4.70838 37.3685 -0.0 -0.0 0.0 0.0 0.0 
2938.10375787 695.729 -1661.75747422 4.98748283593 65.4045800022 -7.61569581446 -1.6697 0.485843 5.18814 -1.65475 0.155181 5.20847 -1.62725 -1.0908 5.09563 -1.66336 -0.273489 5.20361 -3.44144 13.6293 -13.4054 -2.08874 35.0499 -12.3052 -0.0 0.0 -0.0 -5.02493 16.4107 -5.99957 -1.71695 -18.6218 68.5609 0.750496 -20.3938 0.134995 -41.2168 -3.08149 4.14668 4.76972 14.7789 39.0228 -0.0 0.0 -0.0 11.3715 15.5554 -22.7466 -12.1758 38.7988 -66.4519 1.03093 27.0524 -0.24801 -66.0691 6.04573 -5.24969 -6.1196 -21.3593 28.7321 0.0 0.0 0.0 16.1443 -3.45184 0.314982 -23.7048 0.233285 3.60434 29.402 20.6468 -3.94788 -32.7505 0.0 0.0 -0.0 0.0 -0.0 -16.4703 15.8992 5.58694 -36.0237 0.233367 -5.43362 35.9852 -27.4331 4.84232 38.6338 -0.0 -0.0 0.0 0.0 0.0 
2918.52245058 703.334 -1660.33380422 8.02378370182 66.136107001 -11.1056135072 -1.79778 0.736801 5.41335 -1.78157 0.391365 5.44912 -1.72834 -0.927603 5.38402 -1.76876 -0.0669772 5.46271 -4.30736 14.2677 -13.168 -3.0959 36.0043 -11.6187 -0.0 0.0 -0.0 -5.03816 15.7918 -6.17554 1.62143 -18.7752 68.0034 0.803914 -21.7141 0.154187 -41.8319 -3.14806 4.1891 4.83051 15.1422 39.6222 -0.0 0.0 -0.0 11.2868 14.232 -22.6029 -12.9586 39.2522 -67.6403 0.944458 25.0725 -0.210012 -66.497 6.10002 -5.25709 -6.17298 -21.5315 28.9544 0.0 0.0 0.0 13.4384 -2.75999 1.50234 -23.1956 0.24402 3.52694 31.0319 24.096 -4.20344 -31.4572 0.0 0.0 -0.0 0.0 -0.0 -13.0744 18.3386 5.05812 -40.7053 0.512245 -6.09672 41.806 -24.9123 5.33499 35.9072 -0.0 -0.0 0.0 0.0 0.0 
